# xmcd CD database file
#
# Track frame offsets:
#	187
#	9137
#	26637
#	49324
#	62999
#	83099
#	102024
#	122887
#	147712
#
# Disc length: 2196 seconds
#
# Revision: 3
# Processed by: cddbd v1.5.2PL0 Copyright (c) Steve Scherf et al.
# Submitted via: CDex 1.70beta3
#
DISCID=77089209
DTITLE=KAN - ゆっくり風呂につかりたい
DYEAR=1991
DGENRE=JPop
TTITLE0=発明王
TTITLE1=決まりだもの
TTITLE2=プロポーズ
TTITLE3=ときどき雲と話をしよう
TTITLE4=ぼくの彼女はおりこうさん
TTITLE5=永遠
TTITLE6=信じられない人
TTITLE7=イン・ザ・ネイム・オブ・ラブ
TTITLE8=恋人
EXTD=YEAR: 1991
EXTT0=
EXTT1=
EXTT2=
EXTT3=
EXTT4=
EXTT5=
EXTT6=
EXTT7=
EXTT8=
PLAYORDER=
